<svg width="30" height="19" viewBox="0 0 30 19" fill="none" xmlns="http://www.w3.org/2000/svg">
<path d="M3.28268 1.48285C3.67811 1.00505 4.15591 0.642571 4.7161 0.395429C5.27629 0.13181 5.8612 0 6.47082 0C7.50881 0 8.35734 0.197714 9.01638 0.593142C9.67543 0.972094 10.1944 1.47462 10.5734 2.10071C10.7876 1.77119 11.0512 1.47462 11.3642 1.211C11.6773 0.94738 12.0068 0.724952 12.3528 0.543714C12.7153 0.362475 13.086 0.230666 13.4649 0.148285C13.8439 0.0494284 14.2146 0 14.5771 0C15.5162 0 16.2989 0.156524 16.9249 0.469571C17.551 0.782618 18.0536 1.20276 18.4325 1.73C18.8279 2.25724 19.0998 2.87509 19.2481 3.58357C19.4128 4.27557 19.4952 5.00876 19.4952 5.78314V12.4313C19.4952 12.6125 19.4293 12.769 19.2975 12.9008C19.1657 13.0326 19.0092 13.0986 18.8279 13.0986H16.9497C16.7684 13.0986 16.6119 13.0326 16.4801 12.9008C16.3483 12.769 16.2824 12.6125 16.2824 12.4313V5.90671C16.2824 4.78633 16.0682 4.00371 15.6398 3.55885C15.2114 3.114 14.61 2.89157 13.8357 2.89157C13.1766 2.89157 12.6082 3.10576 12.1304 3.53414C11.669 3.96252 11.4219 4.71218 11.389 5.78314V12.4313C11.389 12.6125 11.323 12.769 11.1912 12.9008C11.0594 13.0326 10.9029 13.0986 10.7217 13.0986H8.84338C8.66215 13.0986 8.50562 13.0326 8.37381 12.9008C8.242 12.769 8.1761 12.6125 8.1761 12.4313V5.90671C8.1761 4.78633 7.96191 4.00371 7.53353 3.55885C7.10515 3.114 6.50377 2.89157 5.72939 2.89157C5.05387 2.89157 4.4772 3.12223 3.99939 3.58357C3.52158 4.02842 3.28268 4.8028 3.28268 5.90671V12.4313C3.28268 12.6125 3.21677 12.769 3.08496 12.9008C2.95315 13.0326 2.79663 13.0986 2.61539 13.0986H0.737109C0.555871 13.0986 0.399348 13.0326 0.267538 12.9008C0.135729 12.769 0.0698242 12.6125 0.0698242 12.4313V0.914427C0.0698242 0.73319 0.135729 0.576666 0.267538 0.444857C0.399348 0.313047 0.555871 0.247142 0.737109 0.247142H2.61539C2.79663 0.247142 2.95315 0.313047 3.08496 0.444857C3.21677 0.576666 3.28268 0.73319 3.28268 0.914427V1.48285Z" fill="white"/>
<circle cx="26.5315" cy="9.82752" r="3.271" fill="white"/>
<path d="M18.4347 15.2792L8.56297 15.2792L1.86964 15.2792L1.00961 15.2792C0.735394 15.2792 0.498572 15.3463 0.299143 15.4805C0.0997142 15.6147 -1.2135e-07 15.7741 -1.13284e-07 15.9586L-2.96959e-08 17.8709C-2.16303e-08 18.0554 0.0997143 18.2147 0.299143 18.3489C0.498573 18.4831 0.735394 18.5502 1.00961 18.5502L18.4347 18.5502C18.7089 18.5502 18.9457 18.4831 19.1452 18.3489C19.3446 18.2147 19.4443 18.0554 19.4443 17.8709L19.4443 15.9586C19.4443 15.7741 19.3446 15.6147 19.1452 15.4805C18.9457 15.3463 18.7089 15.2792 18.4347 15.2792Z" fill="white"/>
</svg>
