<svg width="19" height="197" viewBox="0 0 19 197" fill="none" xmlns="http://www.w3.org/2000/svg">
<path d="M4.82 4.14C4.82 3.324 4.994 2.61 5.342 1.998C5.702 1.398 6.188 1.002 6.8 0.809999L7.106 1.602C6.662 1.734 6.302 2.028 6.026 2.484C5.75 2.94 5.612 3.474 5.612 4.086C5.612 4.77 5.762 5.322 6.062 5.742C6.374 6.162 6.782 6.372 7.286 6.372C7.55 6.372 7.766 6.312 7.934 6.192C8.114 6.084 8.258 5.898 8.366 5.634C8.486 5.382 8.57 5.142 8.618 4.914C8.678 4.698 8.744 4.386 8.816 3.978C8.888 3.582 8.948 3.276 8.996 3.06C9.044 2.844 9.128 2.574 9.248 2.25C9.368 1.926 9.506 1.68 9.662 1.512C9.818 1.344 10.028 1.194 10.292 1.062C10.568 0.93 10.886 0.864 11.246 0.864C11.99 0.864 12.584 1.134 13.028 1.674C13.472 2.226 13.694 2.958 13.694 3.87C13.694 4.638 13.514 5.304 13.154 5.868C12.806 6.444 12.326 6.828 11.714 7.02L11.408 6.21C11.864 6.09 12.224 5.814 12.488 5.382C12.764 4.95 12.908 4.446 12.92 3.87C12.92 3.234 12.77 2.724 12.47 2.34C12.182 1.956 11.792 1.764 11.3 1.764C10.784 1.764 10.418 1.95 10.202 2.322C9.986 2.694 9.812 3.246 9.68 3.978C9.476 5.07 9.284 5.796 9.104 6.156C8.732 6.912 8.132 7.29 7.304 7.29C6.548 7.29 5.942 6.996 5.486 6.408C5.042 5.832 4.82 5.076 4.82 4.14ZM4.82 15.8879C4.82 14.6759 5.228 13.6619 6.044 12.8459C6.86 12.0419 7.922 11.6399 9.23 11.6399C10.538 11.6399 11.606 12.0359 12.434 12.8279C13.274 13.6319 13.694 14.6519 13.694 15.8879C13.694 16.7759 13.484 17.5559 13.064 18.2279C12.644 18.9119 12.08 19.3619 11.372 19.5779L11.03 18.7679C11.57 18.6239 12.008 18.2819 12.344 17.7419C12.692 17.2139 12.866 16.6019 12.866 15.9059C12.866 14.9459 12.524 14.1479 11.84 13.5119C11.168 12.8759 10.304 12.5579 9.248 12.5579C8.192 12.5579 7.328 12.8759 6.656 13.5119C5.984 14.1599 5.648 14.9699 5.648 15.9419C5.648 16.6259 5.816 17.2319 6.152 17.7599C6.488 18.2879 6.932 18.6239 7.484 18.7679L7.16 19.5779C6.452 19.3619 5.882 18.9119 5.45 18.2279C5.03 17.5559 4.82 16.7759 4.82 15.8879ZM13.694 28.1199C13.694 28.6359 13.616 29.0679 13.46 29.4159L12.65 29.2899C12.782 28.9419 12.848 28.5339 12.848 28.0659C12.848 27.2739 12.572 26.6379 12.02 26.1579C11.48 25.6899 10.754 25.4559 9.842 25.4559L5 25.4559L5 24.5559L13.514 24.5559L13.514 25.4559L12.164 25.4559C13.184 26.0079 13.694 26.8959 13.694 28.1199ZM4.82 37.2791C4.82 36.0431 5.228 35.0111 6.044 34.1831C6.86 33.3551 7.916 32.9411 9.212 32.9411C10.556 32.9411 11.636 33.3491 12.452 34.1651C13.28 34.9931 13.694 36.0311 13.694 37.2791C13.694 38.5271 13.28 39.5651 12.452 40.3931C11.636 41.2211 10.556 41.6351 9.212 41.6351C7.916 41.6351 6.86 41.2211 6.044 40.3931C5.228 39.5651 4.82 38.5271 4.82 37.2791ZM5.648 37.2791C5.648 38.2511 5.978 39.0611 6.638 39.7091C7.298 40.3691 8.156 40.6991 9.212 40.6991C10.316 40.6991 11.198 40.3691 11.858 39.7091C12.53 39.0611 12.866 38.2511 12.866 37.2791C12.866 36.2951 12.53 35.4791 11.858 34.8311C11.198 34.1831 10.316 33.8591 9.212 33.8591C8.156 33.8591 7.298 34.1831 6.638 34.8311C5.978 35.4791 5.648 36.2951 5.648 37.2791ZM5 46.7715L17.6 46.7715L17.6 47.6715L5 47.6715L5 46.7715ZM5 53.4848L17.6 53.4848L17.6 54.3848L5 54.3848L5 53.4848ZM17.6 67.0921L17.6 67.9921L5 67.9921L5 67.0921L6.836 67.0921C6.2 66.7801 5.702 66.3301 5.342 65.7421C4.994 65.1541 4.82 64.4761 4.82 63.7081C4.82 62.5201 5.228 61.5301 6.044 60.7381C6.872 59.9461 7.94 59.5501 9.248 59.5501C10.556 59.5501 11.624 59.9401 12.452 60.7201C13.28 61.5121 13.694 62.5081 13.694 63.7081C13.694 64.4761 13.514 65.1541 13.154 65.7421C12.806 66.3301 12.314 66.7801 11.678 67.0921L17.6 67.0921ZM5.648 63.8161C5.648 64.7881 5.984 65.5741 6.656 66.1741C7.328 66.7861 8.192 67.0921 9.248 67.0921C10.316 67.0921 11.186 66.7861 11.858 66.1741C12.53 65.5741 12.866 64.7881 12.866 63.8161C12.866 62.8561 12.53 62.0581 11.858 61.4221C11.198 60.7861 10.328 60.4681 9.248 60.4681C8.168 60.4681 7.298 60.7861 6.638 61.4221C5.978 62.0581 5.648 62.8561 5.648 63.8161ZM4.82 77.474C4.82 76.238 5.228 75.206 6.044 74.378C6.86 73.55 7.916 73.136 9.212 73.136C10.556 73.136 11.636 73.544 12.452 74.36C13.28 75.188 13.694 76.226 13.694 77.474C13.694 78.722 13.28 79.76 12.452 80.588C11.636 81.416 10.556 81.83 9.212 81.83C7.916 81.83 6.86 81.416 6.044 80.588C5.228 79.76 4.82 78.722 4.82 77.474ZM5.648 77.474C5.648 78.446 5.978 79.256 6.638 79.904C7.298 80.564 8.156 80.894 9.212 80.894C10.316 80.894 11.198 80.564 11.858 79.904C12.53 79.256 12.866 78.446 12.866 77.474C12.866 76.49 12.53 75.674 11.858 75.026C11.198 74.378 10.316 74.054 9.212 74.054C8.156 74.054 7.298 74.378 6.638 75.026C5.978 75.674 5.648 76.49 5.648 77.474ZM13.514 98.5987L13.514 99.5167L5 96.3487L5 95.3767L12.344 92.6047L5 89.8327L5 88.8607L13.514 85.6747L13.514 86.6107L5.972 89.3827L13.514 92.1547L13.514 93.0547L5.972 95.8267L13.514 98.5987ZM13.694 107.845C13.694 108.853 13.406 109.657 12.83 110.257C12.266 110.869 11.462 111.175 10.418 111.175L5 111.175L5 110.275L10.31 110.275C11.138 110.275 11.768 110.035 12.2 109.555C12.644 109.087 12.866 108.463 12.866 107.683C12.866 106.915 12.59 106.291 12.038 105.811C11.486 105.343 10.76 105.109 9.86 105.109L5 105.109L5 104.209L13.514 104.209L13.514 105.109L12.146 105.109C13.178 105.685 13.694 106.597 13.694 107.845Z" fill="white"/>
<line x1="9" y1="127" x2="9" y2="196" stroke="white" stroke-width="2" stroke-linecap="round"/>
</svg>
