<svg width="877" height="271" viewBox="0 0 877 271" fill="none" xmlns="http://www.w3.org/2000/svg">
<path d="M581.926 55.5404C679.127 58.951 787.067 150.143 828.887 195.312L298.424 215.41V158.771C352.424 122.939 484.725 52.1299 581.926 55.5404Z" fill="#2A216A"/>
<path d="M0 34.296L36.5417 23.0142C73.0833 12.154 146.167 -11.0423 219.25 6.14409C292.333 22.6978 365.417 79.6343 438.5 118.646C511.583 157.658 584.667 180.855 657.75 169.257C730.833 157.658 803.917 113.374 840.458 90.4944L877 68.0362V270.477H840.458C803.917 270.477 730.833 270.477 657.75 270.477C584.667 270.477 511.583 270.477 438.5 270.477C365.417 270.477 292.333 270.477 219.25 270.477C146.167 270.477 73.0833 270.477 36.5417 270.477H0V34.296Z" fill="#1F184E"/>
</svg>
